<svg xmlns="http://www.w3.org/2000/svg" viewBox="0 0 1200 600" fill="#a78bfa" stroke="none">

  <!-- North America (mainland) -->
  <path d="
    M135,68 L142,62 L150,58 L160,55 L170,52 L182,50 L195,50 L205,52
    L210,48 L218,45 L228,42 L238,42 L248,44 L255,48 L260,55
    L268,50 L278,48 L288,50 L295,55 L298,62 L295,70 L290,78
    L285,72 L278,68 L272,72 L268,78 L265,85
    L270,88 L278,85 L285,82 L292,80 L298,78 L305,80 L310,85
    L315,90 L318,95 L315,102 L310,108 L305,115 L298,120 L292,125
    L285,130 L278,135 L272,140 L268,148 L262,155 L258,162
    L252,168 L248,175 L242,182 L238,188 L232,195 L228,202
    L222,208 L218,215 L215,222 L212,228 L208,235 L205,242
    L200,248 L195,255 L190,262 L185,268 L182,275 L178,280
    L172,285 L168,290 L162,295 L158,300 L155,308 L152,315
    L148,320 L142,325 L138,322 L135,318 L132,312 L128,305
    L125,298 L122,290 L118,282 L115,275 L112,268 L110,260
    L108,252 L105,245 L102,238 L100,230 L98,222 L100,215
    L102,208 L100,200 L95,192 L90,185 L85,178 L82,170
    L80,162 L78,155 L80,148 L85,140 L90,132 L95,125
    L100,118 L108,112 L115,105 L122,98 L128,90 L132,82 L135,75 Z
  "/>

  <!-- Alaska -->
  <path d="
    M60,82 L68,72 L78,65 L88,58 L98,52 L108,50 L118,52 L128,58
    L135,65 L138,72 L135,78 L132,82 L128,88 L122,92 L115,95
    L108,95 L100,92 L92,88 L85,85 L78,82 L72,80 L65,80 Z
  "/>

  <!-- Aleutian Islands -->
  <path d="M35,88 L42,82 L52,80 L58,85 L55,90 L48,92 L40,92 L35,88 Z"/>

  <!-- Greenland -->
  <path d="
    M298,30 L310,25 L325,22 L342,22 L358,25 L370,30
    L378,38 L382,48 L382,58 L378,68 L372,78 L365,85
    L358,92 L348,98 L340,105 L330,110 L322,108 L315,102
    L308,95 L302,85 L298,75 L295,65 L292,55 L295,42 Z
  "/>

  <!-- Central America -->
  <path d="
    M178,280 L185,278 L190,282 L195,288 L200,295 L205,302
    L208,308 L212,312 L215,318 L218,322 L222,328 L225,332
    L228,338 L230,342 L232,348 L228,352 L225,348 L222,342
    L218,338 L215,335 L210,330 L205,325 L200,320 L195,315
    L190,308 L185,300 L182,292 L180,285 Z
  "/>

  <!-- Cuba -->
  <path d="M205,282 L215,278 L228,275 L242,275 L255,278 L262,282 L258,288 L248,290 L238,290 L228,288 L218,286 L210,285 L205,282 Z"/>

  <!-- Hispaniola -->
  <path d="M268,282 L278,278 L288,280 L292,285 L288,290 L280,292 L272,290 L268,285 Z"/>

  <!-- South America -->
  <path d="
    M228,348 L235,342 L245,338 L255,336 L265,338 L272,342
    L278,348 L285,355 L290,362 L295,370 L298,378 L302,388
    L305,398 L308,408 L310,418 L312,428 L312,438 L310,448
    L308,455 L305,462 L300,470 L295,478 L290,485 L282,492
    L275,498 L268,502 L260,508 L252,512 L245,512 L240,508
    L238,500 L235,492 L232,482 L230,472 L228,465 L225,455
    L222,448 L218,440 L215,432 L212,422 L210,415 L208,408
    L205,398 L205,390 L208,382 L212,375 L215,368 L220,360
    L225,352 Z
  "/>

  <!-- Iceland -->
  <path d="M405,62 L415,55 L425,52 L435,52 L442,55 L448,62 L445,70 L438,75 L428,78 L418,78 L410,72 L405,65 Z"/>

  <!-- British Isles - Great Britain -->
  <path d="M442,95 L448,88 L455,85 L462,88 L465,95 L465,105 L462,112 L458,118 L452,122 L448,118 L445,112 L442,105 Z"/>

  <!-- Ireland -->
  <path d="M432,98 L438,92 L445,95 L445,102 L442,108 L438,112 L432,110 L430,105 Z"/>

  <!-- Scandinavia (Norway/Sweden) -->
  <path d="
    M498,30 L505,25 L512,28 L518,32 L522,38 L528,45
    L532,52 L535,60 L538,68 L540,78 L538,85
    L535,90 L530,88 L525,82 L520,75 L515,68
    L510,60 L505,52 L502,45 L498,38 Z
  "/>

  <!-- Finland -->
  <path d="M542,32 L548,28 L555,32 L558,40 L560,48 L560,58 L558,68 L555,75 L550,80 L545,78 L540,72 L538,62 L540,52 L540,42 Z"/>

  <!-- Europe mainland -->
  <path d="
    M458,82 L468,78 L478,75 L488,75 L498,78 L508,80
    L518,82 L528,85 L535,90 L540,95 L545,102 L548,110
    L552,118 L555,125 L555,132 L552,140 L548,148
    L542,155 L538,162 L532,168 L525,172 L518,175
    L510,178 L502,180 L495,182 L488,180 L480,178
    L472,175 L465,170 L460,162 L455,155 L452,148
    L450,140 L448,132 L448,125 L450,118 L452,110
    L455,102 L455,95 L458,88 Z
  "/>

  <!-- Iberian Peninsula -->
  <path d="
    M440,152 L448,148 L458,145 L468,142 L478,145 L488,148
    L492,155 L492,162 L490,170 L488,178 L485,185
    L478,192 L470,195 L462,195 L455,192 L448,185
    L442,178 L438,170 L435,162 L438,155 Z
  "/>

  <!-- Italy boot -->
  <path d="
    M508,168 L512,172 L515,178 L518,185 L520,192
    L522,198 L520,205 L518,210 L515,208 L512,202
    L508,195 L505,188 L505,180 L508,172 Z
  "/>
  <!-- Sicily -->
  <path d="M510,212 L518,210 L522,215 L518,220 L512,220 L508,215 Z"/>
  <!-- Sardinia -->
  <path d="M498,188 L502,185 L505,188 L505,195 L502,198 L498,195 Z"/>
  <!-- Corsica -->
  <path d="M500,178 L505,175 L508,178 L505,185 L502,185 L500,182 Z"/>

  <!-- Greece & Peloponnese -->
  <path d="M538,168 L542,165 L548,168 L552,175 L552,182 L548,188 L545,192 L540,188 L538,182 L535,175 Z"/>

  <!-- Turkey / Anatolia -->
  <path d="M555,155 L565,150 L575,148 L585,148 L595,150 L605,152 L612,158 L608,165 L600,170 L592,172 L582,172 L572,170 L562,168 L555,162 Z"/>

  <!-- Africa -->
  <path d="
    M452,202 L462,198 L472,195 L482,192 L492,192 L502,195
    L512,198 L522,202 L532,208 L542,215 L550,222 L558,232
    L565,242 L572,255 L578,268 L582,280 L585,292
    L588,305 L590,318 L588,330 L585,342 L582,352
    L578,362 L572,372 L568,380 L562,388 L555,395
    L548,402 L540,408 L532,415 L525,420 L518,425
    L510,428 L502,425 L495,420 L490,412 L488,405
    L485,395 L482,385 L478,375 L475,365 L472,355
    L470,345 L468,335 L465,325 L462,315 L460,305
    L458,295 L455,282 L452,270 L450,258 L448,248
    L448,238 L450,228 L452,218 L452,210 Z
  "/>

  <!-- Madagascar -->
  <path d="M592,362 L598,355 L605,358 L608,368 L608,378 L608,388 L605,398 L602,405 L598,402 L595,395 L592,385 L590,375 L592,365 Z"/>

  <!-- Arabian Peninsula -->
  <path d="
    M580,185 L588,180 L598,178 L608,182 L618,188 L625,195
    L630,205 L632,215 L628,225 L622,235 L615,242
    L608,248 L600,252 L592,248 L585,240 L582,230
    L578,220 L575,210 L575,200 L578,192 Z
  "/>

  <!-- Caspian Sea region / Central Asia connection -->
  <!-- Main Asian landmass -->
  <path d="
    M555,42 L568,38 L582,35 L598,32 L615,30 L632,28
    L650,28 L668,28 L685,30 L702,32 L718,35 L735,38
    L752,42 L768,45 L785,50 L800,55 L815,60 L830,65
    L845,70 L858,78 L870,85 L882,92 L892,100 L900,108
    L908,118 L912,128 L910,138 L905,148 L898,155
    L890,162 L882,168 L875,175 L865,182 L855,188
    L845,195 L835,200 L825,205 L815,210 L805,215
    L795,218 L785,222 L778,220 L770,215 L762,210
    L755,205 L748,200 L740,198 L732,200 L725,205
    L718,212 L712,218 L705,222 L698,225 L690,222
    L682,218 L675,212 L668,208 L660,205 L652,202
    L645,200 L638,202 L630,208 L622,215 L618,218
    L612,218 L608,212 L602,205 L598,198 L595,190
    L592,182 L588,175 L585,168 L582,160 L578,152
    L575,145 L572,138 L570,130 L568,122 L565,115
    L562,108 L560,100 L558,92 L555,85 L552,78
    L550,70 L548,62 L550,52 L552,45 Z
  "/>

  <!-- India -->
  <path d="
    M705,222 L712,218 L718,212 L725,205 L732,200
    L740,198 L748,200 L755,205 L760,212 L762,220
    L762,230 L760,240 L758,250 L755,260 L752,268
    L748,275 L742,282 L738,290 L732,298 L728,305
    L722,308 L718,305 L715,298 L712,290 L708,280
    L705,270 L702,260 L700,250 L698,240 L700,230
    L702,225 Z
  "/>

  <!-- Sri Lanka -->
  <path d="M725,315 L730,310 L735,312 L738,320 L735,328 L730,330 L725,325 L722,318 Z"/>

  <!-- Southeast Asia Peninsula -->
  <path d="
    M785,222 L792,218 L798,215 L808,210 L815,210
    L822,208 L828,212 L832,220 L835,228 L838,238
    L840,248 L838,258 L835,268 L830,278 L825,288
    L820,298 L815,305 L808,312 L802,315 L798,312
    L795,305 L792,298 L788,288 L785,278 L782,268
    L780,258 L778,248 L778,238 L780,228 Z
  "/>

  <!-- Malay Peninsula tip -->
  <path d="M802,315 L808,312 L812,318 L815,328 L812,335 L808,338 L802,335 L800,328 L800,322 Z"/>

  <!-- Korean Peninsula -->
  <path d="M895,110 L900,105 L908,108 L912,115 L915,125 L915,135 L912,142 L908,148 L902,150 L898,145 L895,138 L892,130 L892,120 Z"/>

  <!-- Japan - Honshu -->
  <path d="
    M918,95 L925,88 L932,90 L938,95 L942,102 L945,112
    L945,122 L942,132 L938,140 L935,148 L930,155
    L925,158 L920,155 L918,148 L915,140 L915,132
    L915,122 L918,112 L918,102 Z
  "/>

  <!-- Japan - Hokkaido -->
  <path d="M925,78 L932,72 L940,75 L942,82 L940,90 L935,92 L928,90 L925,85 Z"/>

  <!-- Japan - Kyushu -->
  <path d="M915,158 L920,155 L925,158 L928,165 L925,172 L920,175 L915,170 L912,165 Z"/>

  <!-- Taiwan -->
  <path d="M885,190 L890,185 L895,188 L898,195 L898,205 L895,212 L890,215 L885,210 L882,202 L882,195 Z"/>

  <!-- Philippines -->
  <path d="M878,230 L882,225 L888,228 L892,235 L895,245 L892,255 L888,262 L882,265 L878,260 L875,250 L875,242 L876,235 Z"/>
  <path d="M872,265 L878,262 L882,268 L882,278 L878,282 L872,280 L870,272 Z"/>

  <!-- Borneo -->
  <path d="M832,268 L842,262 L852,262 L862,268 L868,278 L868,290 L862,300 L855,305 L845,308 L835,305 L828,298 L825,288 L825,278 L828,272 Z"/>

  <!-- Sumatra -->
  <path d="M785,305 L792,298 L800,300 L805,308 L810,318 L815,328 L812,338 L808,342 L802,340 L798,335 L792,325 L788,315 Z"/>

  <!-- Java -->
  <path d="M815,340 L825,336 L835,335 L848,336 L858,340 L862,345 L858,348 L848,350 L838,352 L828,350 L820,348 L815,345 Z"/>

  <!-- Sulawesi -->
  <path d="M862,288 L868,282 L875,285 L878,292 L880,302 L878,312 L875,318 L870,315 L866,308 L862,298 Z"/>

  <!-- New Guinea -->
  <path d="M905,280 L915,275 L928,272 L942,275 L952,280 L958,288 L960,298 L955,308 L948,315 L938,320 L928,322 L918,320 L910,315 L905,308 L902,298 L902,288 Z"/>

  <!-- Australia -->
  <path d="
    M865,365 L878,358 L895,350 L912,345 L930,342
    L948,342 L965,345 L980,350 L992,358 L1002,368
    L1010,378 L1015,390 L1018,402 L1018,415 L1015,425
    L1010,435 L1002,445 L992,452 L982,458 L972,462
    L962,462 L952,458 L942,452 L932,445 L925,440
    L918,438 L910,440 L902,445 L895,450 L888,452
    L880,450 L872,445 L868,438 L862,428 L858,418
    L856,408 L856,398 L858,388 L862,378 Z
  "/>

  <!-- Tasmania -->
  <path d="M962,470 L970,465 L978,468 L982,475 L978,482 L972,488 L965,488 L960,482 L958,475 Z"/>

  <!-- New Zealand - North Island -->
  <path d="M1055,415 L1062,410 L1070,412 L1075,420 L1075,430 L1072,438 L1068,445 L1062,450 L1058,445 L1055,438 L1052,428 Z"/>

  <!-- New Zealand - South Island -->
  <path d="M1048,450 L1055,445 L1062,448 L1068,458 L1068,468 L1065,478 L1060,488 L1052,492 L1045,488 L1042,478 L1042,468 L1045,458 Z"/>

  <!-- Kamchatka Peninsula -->
  <path d="M952,48 L958,42 L965,45 L972,52 L978,62 L982,72 L982,82 L978,92 L975,100 L968,105 L962,100 L958,92 L955,82 L952,72 L950,62 Z"/>

  <!-- Svalbard -->
  <path d="M518,20 L525,15 L532,18 L535,25 L532,32 L525,35 L518,30 L515,25 Z"/>

</svg>
